<svg xmlns="http://www.w3.org/2000/svg" width="16" height="16" fill="none" viewBox="0 0 16 16"><path fill="#d13980" fill-rule="evenodd" d="M5.333 4H4v-.667H2.667v2h10.667v-2H12V4h-1.333v-.667H5.333Zm8 2.667H2.666v6.667h10.667ZM10.666 2H5.333v-.667H4V2H2.667c-.737 0-1.334.597-1.334 1.334v10c0 .736.597 1.333 1.333 1.333h10.667c.736 0 1.333-.597 1.333-1.333v-10c0-.737-.597-1.334-1.333-1.334H12v-.667h-1.333ZM6 9.334H4.667V8H6Zm1.333 0h1.333V8H7.333Zm2.667 0V8h1.333v1.333ZM4.666 12H6v-1.333H4.667Zm4 0H7.333v-1.333h1.333Z" clip-rule="evenodd"/></svg>