<svg xmlns="http://www.w3.org/2000/svg" width="44" height="44" fill="none" viewBox="0 0 44 44"><rect width="43" height="43" x=".5" y=".5" rx="5.5"/><path fill="#2e2e54" fill-rule="evenodd" d="M18 28.536 22.058 26h5.275c.736 0 1.333-.597 1.333-1.333v-8c0-.737-.597-1.334-1.333-1.334H16.666c-.736 0-1.333.597-1.333 1.334v8c0 .736.597 1.333 1.333 1.333H18Zm3.675-3.87-2.342 1.465v-1.464h-2.667v-8h10.667v8Zm-3.009-2v-1.333h4.667v1.333Zm0-4V20h6v-1.333Z" clip-rule="evenodd"/><circle cx="28" cy="15" r="3.5" fill="#d13980" stroke="#fff"/></svg>