<svg width="44" height="44" viewBox="0 0 44 44" fill="none" xmlns="http://www.w3.org/2000/svg">
<rect x="0.5" y="0.5" width="43" height="43" rx="5.5" />
<path fill-rule="evenodd" clip-rule="evenodd" d="M17.9997 28.5363L22.0575 26.0002H27.333C28.0694 26.0002 28.6663 25.4032 28.6663 24.6668V16.6668C28.6663 15.9304 28.0694 15.3335 27.333 15.3335H16.6663C15.93 15.3335 15.333 15.9304 15.333 16.6668V24.6668C15.333 25.4032 15.93 26.0002 16.6663 26.0002H17.9997V28.5363ZM21.6751 24.6668L19.333 26.1307V24.6668H16.6663V16.6668H27.333V24.6668H21.6751ZM18.6663 22.6668V21.3335H23.333V22.6668H18.6663ZM18.6663 18.6668V20.0002H24.6663V18.6668H18.6663Z" fill="#2E2E54"/>
<circle cx="28" cy="15" r="3.5" fill="#D13980" stroke="white"/>
</svg>
